<svg viewBox="0 0 99.6099853515625 99.6572265625" version="1.1" xmlns="http://www.w3.org/2000/svg" class="icon glyph-box" width="114" height="114"><g transform="matrix(1 0 0 1 -8.740039062500045 85.05859375)"><path d="M58.5449 14.5508C85.791 14.5508 108.35-8.05664 108.35-35.2539C108.35-62.5 85.7422-85.0586 58.4961-85.0586C31.2988-85.0586 8.74023-62.5 8.74023-35.2539C8.74023-8.05664 31.3477 14.5508 58.5449 14.5508ZM58.5449-18.6523C43.8477-18.6523 32.5684-13.3789 27.5879-7.51953C21.0449-14.8926 17.0898-24.5605 17.0898-35.2539C17.0898-58.3008 35.4492-76.7578 58.4961-76.7578C81.543-76.7578 100-58.3008 100.049-35.2539C100.098-24.5605 96.0938-14.8438 89.502-7.51953C84.5703-13.3789 73.2422-18.6523 58.5449-18.6523ZM58.5449-26.9531C67.9688-26.8555 75.293-34.8633 75.293-45.3613C75.293-55.2246 67.9199-63.3789 58.5449-63.3789C49.1699-63.3789 41.748-55.2246 41.7969-45.3613C41.8457-34.8633 49.1699-27.0508 58.5449-26.9531Z"></path></g></svg>